<svg xmlns="http://www.w3.org/2000/svg" width="16" height="16">
  <path d="M 1.8769531 0 C 0.83662619 0 1.4802974e-16 0.83662617 0 1.8769531 L 0 11.123047 C 0 12.163374 0.83662617 13 1.8769531 13 L 10 13 L 10 11 L 2 11 L 2 2 L 14 2 L 14 10 L 16 10 L 16 1.8769531 C 16 0.83662619 15.163374 1.4802974e-16 14.123047 0 L 1.8769531 0 z M 3 3 L 3 4 L 13 4 L 13 3 L 3 3 z M 3 5 L 3 6 L 12 6 L 12 5 L 3 5 z M 3 7 L 3 8 L 10 8 L 10 7 L 3 7 z M 3 9 L 3 10 L 11 10 L 11 9 L 3 9 z M 11 11 L 11 16 L 16 16 L 16 11 L 11 11 z M 12 12 L 13 12 L 13 13 L 14 13 L 14 12 L 15 12 L 15 14 L 14 14 L 14 15 L 13 15 L 13 14 L 12 14 L 12 12 z M 6 14 C 5.446 14 5 14.446 5 15 L 5 16 L 6 16 L 10 16 L 10 15 L 10 14 L 6 14 z " fill="#c0bfbc" />
</svg>
