<?xml version="1.0" encoding="UTF-8"?>
<svg width="128" height="128" version="1.1" viewBox="0 0 128 128.00001" xmlns="http://www.w3.org/2000/svg">
<defs>
<linearGradient id="a" x1="47.968" x2="47" y1="1110.1" y2="1106.5" gradientTransform="matrix(2 0 0 2 0 -2117)" gradientUnits="userSpaceOnUse">
<stop stop-color="#f6f5f4" offset="0"/>
<stop stop-color="#fcfcfc" offset="1"/>
</linearGradient>
<linearGradient id="b" x1="23" x2="26.679" y1="24" y2="25.83" gradientTransform="scale(4)" gradientUnits="userSpaceOnUse">
<stop stop-color="#f6f5f4" offset="0"/>
<stop stop-color="#deddda" offset="1"/>
</linearGradient>
</defs>
<rect x="100" y="20" width="12" height="24" ry="4" fill="#e01b24"/>
<rect x="26" y="80" width="78" height="32" ry="8" fill="#241f31"/>
<rect x="24" y="96" width="70" height="16" ry="0" fill="#241f31"/>
<rect x="28" y="72" width="76" height="36" ry="8" fill="#fff"/>
<rect x="28" y="72" width="34" height="36" ry="0" fill="#fff"/>
<path d="m28 68v36h68c4.432 0 8-3.568 8-8v-20c0-4.432-3.568-8-8-8z" fill="url(#a)"/>
<path d="m28 64v36h68c4.432 0 8-3.568 8-8v-20c0-4.432-3.568-8-8-8z" fill="url(#b)"/>
<rect x="24" y="84" width="68" height="12" ry="0" fill="#241f31"/>
<rect x="24" y="76" width="80" height="20" ry="8" fill="#241f31"/>
<rect x="100" y="32" width="12" height="24" ry="4" fill="#f6d32d"/>
<rect x="100" y="44" width="12" height="24" ry="4" fill="#33d17a"/>
<rect x="100" y="60" width="12" height="24" ry="4" fill="#3584e4"/>
<rect x="32" y="8" width="72" height="84" ry="8" fill="#3d3846"/>
<path d="m24 8v84h40v-84h-32v2c0 1.108-0.892 2-2 2s-2-0.892-2-2v-2z" fill="#3d3846"/>
<g transform="matrix(1.75 0 0 1.75 36 -1888.4)" fill="#588f1c">
<g transform="matrix(.26458 0 0 .26458 -10.591 -38.473)" fill="#588f1c">
<circle cx="507.46" cy="3582.8" r="0" fill="#588f1c" opacity=".3"/>
</g>
</g>
<path d="m28 10v86h4v-86c0 1.108-0.892 2-2 2s-2-0.892-2-2z" fill="#241f31"/>
<path d="m52 28c-4.432 0-8 3.568-8 8v20.04c0 4.432 3.568 8 8 8h32c4.432 0 8-3.568 8-8v-20.04c0-4.432-3.568-8-8-8zm0 8h32v20.04h-32z" fill="#fff"/>
<rect x="52" y="68" width="32" height="8" ry="3.7076" fill="#fff"/>
<rect x="52" y="72" width="32" height="4" ry="0" fill="#fff"/>
<rect x="56" y="40" width="24" height="4" fill="#fff"/>
<rect x="56" y="48" width="20" height="4.04" fill="#fff"/>
</svg>
